<?xml version="1.0" encoding="UTF-8"?>
<svg id="Camada_2" data-name="Camada 2" xmlns="http://www.w3.org/2000/svg" viewBox="0 0 175 136.52">
  <defs>
    <style>
      .cls-1 {
        fill: #fff;
      }

      .cls-2 {
        fill: #f0f0f0;
      }

      .cls-3 {
        fill: #fd4e1f;
      }
    </style>
  </defs>
  <g id="Camada_3" data-name="Camada 3">
    <g>
      <path class="cls-3" d="M48.23,23.58l5.38-17.63c2.5-8.18,4.89-7.88,5.33.66l.93,18.41c.04.88,1.11,1.28,1.73.66l12.96-13.11c6.01-6.08,8-4.71,4.41,3.06l-7.73,16.74c-.37.8.39,1.65,1.22,1.39l17.57-5.59c8.15-2.59,9.27-.45,2.48,4.76l-14.62,11.23c-.7.53-.43,1.64.44,1.8l18.15,3.22c8.42,1.49,8.42,3.91-.01,5.37l-18.16,3.14c-.87.15-1.14,1.26-.45,1.79l14.58,11.28c6.76,5.24,5.64,7.37-2.5,4.75l-17.55-5.66c-.84-.27-1.59.58-1.23,1.38l7.66,16.77c3.56,7.78,1.56,9.15-4.42,3.04l-12.91-13.16c-.61-.63-1.68-.22-1.73.65l-1.01,18.41c-.47,8.54-2.87,8.83-5.33.64l-5.31-17.65c-.25-.84-1.38-.98-1.83-.23l-9.45,15.83c-4.38,7.34-6.64,6.48-5.01-1.91l3.5-18.1c.17-.86-.77-1.51-1.52-1.05l-15.72,9.63c-7.29,4.47-8.89,2.66-3.55-4.02l11.51-14.4c.55-.69.02-1.7-.86-1.64l-18.39,1.22c-8.53.57-9.11-1.78-1.27-5.21l16.88-7.4c.8-.35.81-1.49,0-1.85l-16.85-7.47c-7.82-3.46-7.24-5.81,1.29-5.21l18.39,1.29c.88.06,1.41-.95.86-1.63l-11.45-14.45c-5.31-6.7-3.71-8.51,3.57-4.01l15.68,9.69c.75.46,1.69-.18,1.52-1.05l-3.43-18.11c-1.59-8.4.67-9.26,5.02-1.89l9.38,15.87c.45.76,1.58.62,1.83-.22Z"/>
      <g>
        <path class="cls-2" d="M163.22,47.92c-3.75-3.39-8.16-5.98-13.23-7.78-5.08-1.8-10.64-2.7-16.69-2.7h-32.41v76.92h32.63c5.98,0,11.49-.9,16.53-2.7,5.04-1.8,9.43-4.39,13.18-7.78,3.74-3.38,6.64-7.44,8.7-12.15,2.05-4.72,3.08-9.99,3.08-15.83s-1.03-11.11-3.08-15.83c-2.05-4.72-4.95-8.77-8.7-12.15ZM151.36,87.7c-1.68,3.21-4.09,5.59-7.22,7.16s-6.84,2.35-11.11,2.35h-11.45v-42.6h11.45c4.27,0,7.96.78,11.05,2.35,3.09,1.57,5.5,3.91,7.22,7.04,1.72,3.13,2.58,7.06,2.58,11.8s-.84,8.7-2.52,11.91Z"/>
        <g>
          <path d="M90.11,100.71c-.61-1.42-.74-2.14-.73-2.85,0-2.95,0-30.2,0-30.2.04-3.42.01-6.08-.01-8.32-.03-2.93-.05-4.96.11-6.98.3-.93.72-1.92,1.17-2.97,1.5-3.52,3.57-8.34.81-13.27-2.9-5.2-9.22-6.14-11.39-6.46-3.46-.47-7.22-.57-9.77-.57-3.34,0-6.65.18-9.32.49l-.21.03c-2.46.36-7.03,1.04-10.33,4.55l-.24.25-13.39,13.39c-.06.06-.12.1-.17.16l-.24.25-.21.27c-4.6,5.88-1.39,12.36-.02,15.12.24.49.6,1.2.7,1.45.62,4.46.5,13.24.4,21.75-.08,5.95-.15,12.11-.03,17.82-.04,1.29-.02,2.53.01,3.75.04,1.94.08,3.47-.24,4.87-.09.4-.6,1.46-.93,2.16-1.49,3.1-4.25,8.87-.34,14.47l.23.32.26.3c4.82,5.57,12.87,6.04,20.02,6.04h2.49c5.99-.18,12.39-.93,16.46-4.62h0s0,0,0,0c.06-.06.12-.12.18-.18l14.09-14.08s-.01,0-.01,0c.75-.76,1.42-1.62,1.96-2.62,2.25-4.12,1.8-8.94-1.32-14.31Z"/>
          <path class="cls-1" d="M81.96,51.04c-.42,4.35-.07,8.04-.18,16.52,0,11.69,0,26.36,0,30.31-.03,2.2.57,4.12,1.56,6.32,4.98,8.23-.35,10.62-11.02,10.93-5.02-.01-13.3.33-16.54-3.41-2.09-2.99,1.67-7.01,2.47-10.66.77-3.4.27-6.6.4-10.19-.34-14.66.74-33.04-.51-41.12-.67-3.2-4.6-7.27-2.16-10.39,1.42-1.51,3.82-1.93,5.9-2.24,5-.6,12.34-.6,17.16.06,10.46,1.56,4.83,6.91,2.97,13.61l-.05.24Z"/>
        </g>
      </g>
    </g>
  </g>
</svg>